<svg class="css-z1hnz5" viewBox="0 0 331 91" preserveAspectRatio="xMidYMid meet"><defs id="SvgjsDefs6496"></defs><g id="main_text" rel="mainfill" name="main_text" feature="main_text" xmlns:name="mainText_mainfill" groupname="main_text" fill="#FFF" transform="translate(109.32000389099122, 3.575999450683593) scale(2.4)"><path d="M5.72 9.76 c2.38 0 3.96 1.52 4.66 2.9 l-1.94 1.14 c-0.74 -1.1 -1.54 -1.72 -2.72 -1.72 c-1.12 0 -1.92 0.66 -1.92 1.56 c0 0.86 0.52 1.36 1.72 1.8 l0.96 0.36 c2.98 1.06 4.28 2.36 4.28 4.36 c0 2.72 -2.58 4.14 -4.96 4.14 c-2.5 0 -4.46 -1.48 -5.1 -3.44 l2.02 -1.06 c0.5 1.12 1.44 2.12 3.08 2.12 c1.24 0 2.24 -0.6 2.24 -1.72 c0 -1.14 -0.72 -1.64 -2.28 -2.22 l-0.9 -0.32 c-2.08 -0.76 -3.66 -1.8 -3.66 -4.12 c0 -2.2 2.02 -3.78 4.52 -3.78 z M17.32 13.42 c1.9 0 3 1.2 3.08 1.54 l0 -1.36 l2.58 0 l0 10.4 l-2.58 0 l0 -1.5 c-0.08 0.56 -1.18 1.7 -3.08 1.7 c-2.38 0 -5.16 -1.74 -5.16 -5.4 c0 -3.58 2.78 -5.38 5.16 -5.38 z M17.66 15.7 c-1.5 0 -3 1.06 -3 3.1 c0 2.06 1.5 3.12 3 3.12 s2.86 -1.04 2.86 -3.12 c0 -2.06 -1.36 -3.1 -2.86 -3.1 z M38.44 13.44 c2.1 0 4.06 1.34 4.06 4.78 l0 5.78 l-2.56 0 l0 -5.74 c0 -1.58 -0.76 -2.58 -2.26 -2.58 c-1.44 0 -2.34 1.22 -2.58 2.38 l0 5.94 l-2.58 0 l0 -5.74 c0 -1.58 -0.98 -2.58 -2.26 -2.58 c-1.52 0 -2.36 1.14 -2.58 2.38 l0 5.94 l-2.58 0 l0 -10.4 l2.58 0 l0 2.12 c0.06 -0.6 1.08 -2.28 3.2 -2.28 c1.46 0 2.96 0.78 3.74 2.4 c0.3 -0.76 1.52 -2.4 3.82 -2.4 z M47.04 9.86 l0 2.2 l-2.58 0 l0 -2.2 l2.58 0 z M47.04 13.6 l0 10.4 l-2.58 0 l0 -10.4 l2.58 0 z M56.5 24 l-3.8 -4.28 l-0.96 1 l0 3.28 l-2.58 0 l0 -3.64 l0 -10.5 l2.58 0 l0 7.72 l3.7 -3.98 l3.08 0 l-4.22 4.44 l5.16 5.96 l-2.96 0 z M65.92 16.58 c-0.34 -0.76 -0.84 -1.1 -1.5 -1.1 c-0.64 0 -1.16 0.38 -1.16 0.92 c0 0.52 0.3 0.84 0.98 1.1 l1.22 0.42 c1.56 0.56 2.98 1.16 2.98 3.12 c0 2.06 -2.02 3.18 -4.04 3.18 c-1.88 0 -3.62 -1.08 -4.04 -2.88 l2.04 -0.62 c0.28 0.78 0.92 1.46 2 1.46 c0.82 0 1.5 -0.5 1.5 -1.16 c0 -0.46 -0.34 -0.8 -1.06 -1.08 l-1.2 -0.42 c-2 -0.72 -2.88 -1.76 -2.88 -3.14 c0 -1.84 1.66 -2.96 3.56 -2.96 s3.18 1.02 3.74 2.58 z M76.1 13.44 c1.98 0 3.94 1.3 3.94 4.56 l0 6 l-2.56 0 l0 -5.84 c0 -1.8 -0.78 -2.48 -1.98 -2.48 c-1.6 0 -2.6 1.52 -2.82 2.36 l0 5.96 l-2.58 0 l0 -14.14 l2.58 0 l0 5.78 c0.2 -0.58 1.34 -2.2 3.42 -2.2 z M86.8 13.42 c1.9 0 3 1.2 3.08 1.54 l0 -1.36 l2.58 0 l0 10.4 l-2.58 0 l0 -1.5 c-0.08 0.56 -1.18 1.7 -3.08 1.7 c-2.38 0 -5.16 -1.74 -5.16 -5.4 c0 -3.58 2.78 -5.38 5.16 -5.38 z M87.14 15.7 c-1.5 0 -3 1.06 -3 3.1 c0 2.06 1.5 3.12 3 3.12 s2.86 -1.04 2.86 -3.12 c0 -2.06 -1.36 -3.1 -2.86 -3.1 z"></path></g><g id="slogan_text" rel="mainfill" name="slogan_text" feature="slogan_text" xmlns:name="sloganText_mainfill" groupname="slogan_text" fill="#FFF" transform="translate(109.70400009155273, 73.00300369262695) scale(0.8)"><path d="M11.12 11.12 c0.4 0 0.72 0.32 0.72 0.72 l0 1.48 c0 0.38 -0.32 0.7 -0.72 0.7 l-6.58 0 l0 5.12 c0 0.38 -0.3 0.7 -0.7 0.7 l-1.52 0 c-0.38 0 -0.7 -0.32 -0.7 -0.7 l0 -7.3 c0 -0.4 0.32 -0.72 0.7 -0.72 l8.8 0 z M12.02 5 c0.38 0 0.7 0.32 0.7 0.7 l0 1.46 c0 0.4 -0.32 0.72 -0.7 0.72 l-9.7 0 c-0.38 0 -0.7 -0.32 -0.7 -0.72 l0 -1.46 c0 -0.38 0.32 -0.7 0.7 -0.7 l9.7 0 z M51.80184722222223 18.86 c0.1 0.22 0.06 0.46 -0.06 0.66 c-0.14 0.2 -0.36 0.32 -0.58 0.32 l-13.32 0 c-0.24 0 -0.46 -0.12 -0.58 -0.32 c-0.14 -0.2 -0.16 -0.44 -0.06 -0.66 l0.62 -1.46 c0.1 -0.26 0.36 -0.44 0.64 -0.44 l9.32 0 l-0.6 -1.44 l-2.68 -6.4 l-2.68 6.4 c-0.1 0.26 -0.36 0.42 -0.64 0.42 l-1.68 0 c-0.24 0 -0.46 -0.12 -0.6 -0.32 c-0.12 -0.18 -0.14 -0.44 -0.06 -0.66 l4.06 -9.52 c0.1 -0.28 0.36 -0.44 0.64 -0.44 l1.92 0 c0.28 0 0.52 0.16 0.64 0.44 z M87.18369444444446 12.42 c1.14 0.72 1.76 1.78 1.76 3.06 c0 1.5 -0.58 2.66 -1.72 3.46 c-0.8 0.58 -1.86 0.92 -3.14 1.06 l-0.08 0 c-0.16 0 -0.34 -0.06 -0.46 -0.18 c-0.16 -0.14 -0.24 -0.32 -0.24 -0.52 l0 -1.44 c0 -0.36 0.28 -0.66 0.62 -0.7 c2.08 -0.24 2.08 -1.2 2.08 -1.62 c0 -0.3 -0.1 -0.5 -0.36 -0.68 c-0.4 -0.28 -0.9 -0.5 -1.5 -0.68 c-0.1 -0.02 -0.18 -0.06 -0.26 -0.08 l-0.06 -0.02 c-0.58 -0.16 -1.2 -0.32 -1.84 -0.46 c-0.24 -0.04 -0.5 -0.12 -0.8 -0.2 c-0.54 -0.14 -1.06 -0.32 -1.52 -0.5 c-0.76 -0.32 -1.42 -0.74 -1.94 -1.26 c-0.58 -0.58 -0.88 -1.36 -0.88 -2.32 c0 -1.32 0.52 -2.4 1.52 -3.22 c0.72 -0.6 1.7 -0.96 2.92 -1.12 c0.2 -0.02 0.4 0.04 0.56 0.18 c0.14 0.14 0.22 0.32 0.22 0.52 l0 1.44 c0 0.34 -0.24 0.64 -0.58 0.7 c-0.2 0.02 -0.36 0.06 -0.5 0.1 c-0.38 0.14 -0.66 0.28 -0.84 0.44 c-0.16 0.14 -0.26 0.28 -0.32 0.42 c-0.06 0.2 -0.1 0.42 -0.1 0.64 c0 0.06 0 0.16 0.18 0.34 c0.2 0.2 0.48 0.36 0.82 0.5 c0.24 0.1 0.54 0.2 0.84 0.3 c0.18 0.04 0.36 0.1 0.54 0.14 c0.56 0.14 1.12 0.28 1.7 0.42 c0.08 0.02 0.16 0.04 0.26 0.06 l0.12 0.04 c0.52 0.14 0.96 0.26 1.36 0.4 c0.6 0.2 1.16 0.46 1.64 0.78 z M83.84369444444445 7.9 c-0.32 -0.08 -0.54 -0.36 -0.54 -0.7 l0 -1.46 c0 -0.2 0.1 -0.4 0.26 -0.54 c0.14 -0.12 0.36 -0.18 0.56 -0.14 c1.16 0.18 2.12 0.58 2.86 1.2 c1 0.82 1.54 1.88 1.6 3.16 c0.02 0.2 -0.06 0.38 -0.18 0.52 c-0.14 0.14 -0.32 0.22 -0.52 0.22 l-1.56 0 c-0.34 0 -0.64 -0.26 -0.68 -0.62 c-0.08 -0.5 -0.3 -1.24 -1.64 -1.62 c-0.04 0 -0.06 0 -0.08 -0.02 l-0.08 0 z M81.50369444444445 17.08 c0.34 0.06 0.56 0.36 0.56 0.68 l0 1.48 c0 0.2 -0.08 0.4 -0.24 0.54 c-0.12 0.1 -0.28 0.16 -0.46 0.16 l-0.1 0 c-1.24 -0.18 -2.28 -0.6 -3.06 -1.22 c-1.02 -0.82 -1.62 -1.98 -1.76 -3.46 c-0.02 -0.2 0.04 -0.4 0.18 -0.54 c0.14 -0.16 0.32 -0.24 0.52 -0.24 l1.58 0 c0.38 0 0.68 0.3 0.7 0.66 c0.04 0.68 0.36 1.18 0.98 1.54 c0.32 0.18 0.68 0.3 1.1 0.4 z M115.78554166666666 10.12 c-0.38 0 -0.7 -0.32 -0.7 -0.7 l0 -3.72 c0 -0.38 0.32 -0.7 0.7 -0.7 l1.52 0 c0.4 0 0.7 0.32 0.7 0.7 l0 3.72 c0 0.38 -0.3 0.7 -0.7 0.7 l-1.52 0 z M126.64554166666667 5 c0.38 0 0.7 0.32 0.7 0.7 l0 13.44 c0 0.38 -0.32 0.7 -0.7 0.7 l-1.52 0 c-0.4 0 -0.7 -0.32 -0.7 -0.7 l0 -5.28 l-6.42 0 l0 5.28 c0 0.38 -0.3 0.7 -0.7 0.7 l-1.52 0 c-0.38 0 -0.7 -0.32 -0.7 -0.7 l0 -7.48 c0 -0.38 0.32 -0.7 0.7 -0.7 l8.64 0 l0 -5.26 c0 -0.38 0.3 -0.7 0.7 -0.7 l1.52 0 z M156.6273888888889 10.94 c0.4 0 0.7 0.32 0.7 0.72 l0 7.48 c0 0.38 -0.3 0.7 -0.7 0.7 l-1.52 0 c-0.38 0 -0.7 -0.32 -0.7 -0.7 l0 -7.48 c0 -0.4 0.32 -0.72 0.7 -0.72 l1.52 0 z M156.6273888888889 5 c0.4 0 0.7 0.32 0.7 0.7 l0 3.7 c0 0.4 -0.3 0.72 -0.7 0.72 l-1.52 0 c-0.38 0 -0.7 -0.32 -0.7 -0.72 l0 -3.7 c0 -0.38 0.32 -0.7 0.7 -0.7 l1.52 0 z M190.18923611111111 5.16 c0.16 0.14 0.24 0.34 0.24 0.54 l0 1.5 c0 0.34 -0.22 0.62 -0.56 0.7 c-0.86 0.18 -1.58 0.58 -2.18 1.22 c-0.82 0.86 -1.22 1.96 -1.22 3.34 c0 1.36 0.4 2.46 1.22 3.34 c0.6 0.62 1.32 1.02 2.18 1.2 c0.34 0.08 0.56 0.36 0.56 0.7 l0 1.5 c0 0.2 -0.08 0.4 -0.24 0.54 c-0.14 0.1 -0.3 0.16 -0.46 0.16 l-0.12 0 c-1.56 -0.26 -2.9 -0.98 -3.98 -2.1 c-1.38 -1.42 -2.08 -3.22 -2.08 -5.34 s0.7 -3.92 2.08 -5.36 c1.08 -1.12 2.42 -1.82 3.98 -2.08 c0.2 -0.04 0.42 0.02 0.58 0.14 z M196.46923611111112 7.1 c1.38 1.44 2.08 3.22 2.08 5.36 c0 2.12 -0.7 3.92 -2.08 5.34 c-1.08 1.12 -2.42 1.84 -3.98 2.1 l-0.12 0 c-0.16 0 -0.32 -0.06 -0.46 -0.16 c-0.16 -0.14 -0.24 -0.34 -0.24 -0.54 l0 -1.5 c0 -0.34 0.22 -0.62 0.56 -0.7 c0.86 -0.18 1.58 -0.58 2.18 -1.2 c0.82 -0.88 1.22 -1.98 1.22 -3.34 c0 -1.38 -0.4 -2.48 -1.22 -3.34 c-0.6 -0.64 -1.32 -1.04 -2.18 -1.22 c-0.34 -0.08 -0.56 -0.36 -0.56 -0.7 l0 -1.5 c0 -0.2 0.08 -0.4 0.24 -0.54 c0.16 -0.12 0.38 -0.18 0.58 -0.14 c1.56 0.26 2.9 0.96 3.98 2.08 z M237.03108333333336 5 c0.38 0 0.7 0.32 0.7 0.7 l0 13.4 c0 0.38 -0.32 0.7 -0.7 0.7 l-1.76 0 c-0.22 0 -0.44 -0.1 -0.58 -0.28 l-9.78 -13.4 c-0.16 -0.22 -0.18 -0.5 -0.06 -0.74 s0.36 -0.38 0.62 -0.38 l1.76 0 c0.22 0 0.44 0.1 0.56 0.28 l7.02 9.54 l0 -9.12 c0 -0.38 0.3 -0.7 0.7 -0.7 l1.52 0 z M226.99108333333336 14.7 c0.38 0 0.7 0.3 0.7 0.7 l0 3.7 c0 0.38 -0.32 0.7 -0.7 0.7 l-1.52 0 c-0.38 0 -0.7 -0.32 -0.7 -0.7 l0 -3.7 c0 -0.4 0.32 -0.7 0.7 -0.7 l1.52 0 z M274.57293055555556 12.42 c1.14 0.72 1.76 1.78 1.76 3.06 c0 1.5 -0.58 2.66 -1.72 3.46 c-0.8 0.58 -1.86 0.92 -3.14 1.06 l-0.08 0 c-0.16 0 -0.34 -0.06 -0.46 -0.18 c-0.16 -0.14 -0.24 -0.32 -0.24 -0.52 l0 -1.44 c0 -0.36 0.28 -0.66 0.62 -0.7 c2.08 -0.24 2.08 -1.2 2.08 -1.62 c0 -0.3 -0.1 -0.5 -0.36 -0.68 c-0.4 -0.28 -0.9 -0.5 -1.5 -0.68 c-0.1 -0.02 -0.18 -0.06 -0.26 -0.08 l-0.06 -0.02 c-0.58 -0.16 -1.2 -0.32 -1.84 -0.46 c-0.24 -0.04 -0.5 -0.12 -0.8 -0.2 c-0.54 -0.14 -1.06 -0.32 -1.52 -0.5 c-0.76 -0.32 -1.42 -0.74 -1.94 -1.26 c-0.58 -0.58 -0.88 -1.36 -0.88 -2.32 c0 -1.32 0.52 -2.4 1.52 -3.22 c0.72 -0.6 1.7 -0.96 2.92 -1.12 c0.2 -0.02 0.4 0.04 0.56 0.18 c0.14 0.14 0.22 0.32 0.22 0.52 l0 1.44 c0 0.34 -0.24 0.64 -0.58 0.7 c-0.2 0.02 -0.36 0.06 -0.5 0.1 c-0.38 0.14 -0.66 0.28 -0.84 0.44 c-0.16 0.14 -0.26 0.28 -0.32 0.42 c-0.06 0.2 -0.1 0.42 -0.1 0.64 c0 0.06 0 0.16 0.18 0.34 c0.2 0.2 0.48 0.36 0.82 0.5 c0.24 0.1 0.54 0.2 0.84 0.3 c0.18 0.04 0.36 0.1 0.54 0.14 c0.56 0.14 1.12 0.28 1.7 0.42 c0.08 0.02 0.16 0.04 0.26 0.06 l0.12 0.04 c0.52 0.14 0.96 0.26 1.36 0.4 c0.6 0.2 1.16 0.46 1.64 0.78 z M271.2329305555556 7.9 c-0.32 -0.08 -0.54 -0.36 -0.54 -0.7 l0 -1.46 c0 -0.2 0.1 -0.4 0.26 -0.54 c0.14 -0.12 0.36 -0.18 0.56 -0.14 c1.16 0.18 2.12 0.58 2.86 1.2 c1 0.82 1.54 1.88 1.6 3.16 c0.02 0.2 -0.06 0.38 -0.18 0.52 c-0.14 0.14 -0.32 0.22 -0.52 0.22 l-1.56 0 c-0.34 0 -0.64 -0.26 -0.68 -0.62 c-0.08 -0.5 -0.3 -1.24 -1.64 -1.62 c-0.04 0 -0.06 0 -0.08 -0.02 l-0.08 0 z M268.8929305555556 17.08 c0.34 0.06 0.56 0.36 0.56 0.68 l0 1.48 c0 0.2 -0.08 0.4 -0.24 0.54 c-0.12 0.1 -0.28 0.16 -0.46 0.16 l-0.1 0 c-1.24 -0.18 -2.28 -0.6 -3.06 -1.22 c-1.02 -0.82 -1.62 -1.98 -1.76 -3.46 c-0.02 -0.2 0.04 -0.4 0.18 -0.54 c0.14 -0.16 0.32 -0.24 0.52 -0.24 l1.58 0 c0.38 0 0.68 0.3 0.7 0.66 c0.04 0.68 0.36 1.18 0.98 1.54 c0.32 0.18 0.68 0.3 1.1 0.4 z"></path></g><g id="SvgjsG6499" rel="mainfill" name="symbol" feature="symbol" xmlns:name="symbol_mainfill" fill="#FFF" transform="translate(-9.100858623789925, -13.055899985340655) scale(1.277475733135148)"><g stroke="#FFF"><path fill="" d="M76.175,63.486c0.008-0.018,0.011-0.038,0.018-0.057c0.014-0.04,0.029-0.08,0.037-0.123   c0.013-0.062,0.019-0.126,0.019-0.191c0-0.065-0.007-0.128-0.019-0.191c-0.009-0.043-0.023-0.083-0.037-0.123   c-0.007-0.019-0.01-0.039-0.018-0.057c-0.018-0.044-0.042-0.085-0.067-0.125c-0.008-0.013-0.013-0.028-0.022-0.041   c-0.035-0.053-0.075-0.102-0.12-0.146L58.697,45.164c-0.362-0.362-1.003-0.362-1.364,0L40.064,62.433   c-0.045,0.045-0.085,0.095-0.121,0.148c-0.015,0.023-0.026,0.048-0.039,0.072c-0.017,0.031-0.036,0.061-0.05,0.094   c-0.013,0.031-0.02,0.064-0.03,0.096c-0.008,0.028-0.019,0.055-0.025,0.084c-0.025,0.125-0.025,0.253,0,0.378   c0.006,0.029,0.017,0.056,0.025,0.084c0.01,0.032,0.017,0.065,0.03,0.096c0.014,0.033,0.033,0.063,0.05,0.094   c0.013,0.024,0.024,0.049,0.039,0.072c0.036,0.053,0.076,0.103,0.121,0.148l17.268,17.268c0.045,0.045,0.095,0.085,0.148,0.121   c0.023,0.015,0.048,0.026,0.072,0.039c0.031,0.017,0.061,0.036,0.094,0.05c0.031,0.013,0.064,0.02,0.096,0.03   c0.028,0.008,0.055,0.019,0.084,0.025c0.062,0.012,0.126,0.019,0.189,0.019c0.063,0,0.127-0.007,0.189-0.019   c0.029-0.006,0.056-0.017,0.084-0.025c0.032-0.01,0.065-0.017,0.096-0.03c0.033-0.014,0.063-0.033,0.094-0.05   c0.024-0.013,0.049-0.024,0.072-0.039c0.053-0.036,0.103-0.076,0.148-0.121l17.268-17.268c0.045-0.045,0.085-0.094,0.12-0.146   c0.009-0.013,0.014-0.027,0.022-0.041C76.133,63.571,76.157,63.53,76.175,63.486z M58.015,68.332l-5.217-5.217l4.962-4.962   c0.082,0.022,0.166,0.038,0.255,0.038s0.173-0.016,0.255-0.038l4.962,4.962L58.015,68.332z M57.05,56.134l-6.016,6.016h-7.959   L57.05,48.175V56.134z M51.035,64.08l6.016,6.016v7.959L43.075,64.08H51.035z M58.98,70.096l6.016-6.016h7.959L58.98,78.055V70.096   z M64.996,62.151l-6.016-6.016v-7.959l13.975,13.975H64.996z"></path><path fill="" d="M52.854,32.737c-0.008,0.018-0.011,0.038-0.018,0.057c-0.014,0.04-0.029,0.08-0.037,0.123   c-0.013,0.062-0.019,0.126-0.019,0.191c0,0.065,0.007,0.128,0.019,0.191c0.009,0.043,0.023,0.083,0.037,0.123   c0.007,0.019,0.01,0.039,0.018,0.057c0.018,0.044,0.042,0.085,0.067,0.125c0.008,0.013,0.013,0.028,0.022,0.041   c0.035,0.053,0.075,0.102,0.12,0.146l9.302,9.302c0.045,0.045,0.094,0.085,0.146,0.12c0.013,0.009,0.027,0.014,0.041,0.022   c0.04,0.024,0.081,0.048,0.125,0.067c0.018,0.008,0.038,0.011,0.057,0.018c0.04,0.014,0.08,0.029,0.123,0.037   c0.062,0.013,0.126,0.019,0.191,0.019c0.065,0,0.128-0.007,0.191-0.019c0.043-0.009,0.083-0.023,0.123-0.037   c0.019-0.007,0.039-0.01,0.057-0.018c0.044-0.018,0.085-0.042,0.125-0.067c0.013-0.008,0.028-0.013,0.041-0.022   c0.053-0.035,0.102-0.075,0.146-0.12l9.302-9.302c0.045-0.045,0.085-0.095,0.121-0.148c0.016-0.024,0.027-0.049,0.04-0.074   c0.017-0.031,0.035-0.06,0.049-0.092c0.013-0.032,0.021-0.065,0.03-0.097c0.008-0.028,0.019-0.054,0.024-0.083   c0.025-0.125,0.025-0.253,0-0.378c-0.006-0.029-0.016-0.055-0.024-0.083c-0.01-0.033-0.017-0.066-0.03-0.097   c-0.013-0.032-0.032-0.062-0.049-0.092c-0.013-0.025-0.024-0.05-0.04-0.074c-0.036-0.053-0.076-0.103-0.121-0.148l-9.302-9.302   c-0.181-0.181-0.426-0.283-0.682-0.283c-0.256,0-0.501,0.102-0.682,0.283l-9.303,9.302c-0.045,0.045-0.085,0.094-0.12,0.146   c-0.009,0.013-0.014,0.027-0.022,0.041C52.896,32.652,52.872,32.693,52.854,32.737z M63.047,30.927l2.181,2.181l-2.181,2.181   l-2.181-2.181L63.047,30.927z M64.012,37.053l2.98-2.98h3.029l-6.009,6.009V37.053z M66.992,32.143l-2.98-2.98v-3.029l6.009,6.009   H66.992z M62.083,29.163l-2.98,2.98h-3.029l6.009-6.009V29.163z M59.103,34.073l2.98,2.98v3.029l-6.009-6.009H59.103z"></path><path fill="" d="M39.326,57.214c0.008-0.018,0.011-0.038,0.018-0.057c0.014-0.04,0.029-0.08,0.037-0.123   c0.013-0.062,0.019-0.126,0.019-0.191c0-0.065-0.007-0.128-0.019-0.191c-0.009-0.043-0.023-0.083-0.037-0.123   c-0.007-0.019-0.01-0.039-0.018-0.057c-0.018-0.044-0.042-0.085-0.067-0.125c-0.008-0.013-0.013-0.028-0.022-0.041   c-0.035-0.053-0.075-0.102-0.12-0.146l-9.302-9.303c-0.362-0.362-1.003-0.362-1.364,0l-9.302,9.303   c-0.045,0.045-0.085,0.094-0.12,0.146c-0.009,0.013-0.014,0.027-0.022,0.041c-0.024,0.04-0.048,0.081-0.067,0.125   c-0.008,0.018-0.011,0.038-0.018,0.057c-0.014,0.04-0.029,0.08-0.037,0.123c-0.013,0.062-0.019,0.126-0.019,0.191   c0,0.065,0.007,0.128,0.019,0.191c0.009,0.043,0.023,0.083,0.037,0.123c0.007,0.019,0.01,0.039,0.018,0.057   c0.018,0.044,0.042,0.085,0.067,0.125c0.008,0.013,0.013,0.028,0.022,0.041c0.035,0.053,0.075,0.102,0.12,0.146l9.302,9.302   c0.045,0.045,0.095,0.085,0.148,0.121c0.023,0.015,0.048,0.026,0.072,0.039c0.031,0.017,0.061,0.036,0.094,0.05   c0.031,0.013,0.064,0.02,0.096,0.03c0.028,0.008,0.055,0.019,0.084,0.025c0.062,0.012,0.126,0.019,0.189,0.019   c0.063,0,0.127-0.007,0.189-0.019c0.029-0.006,0.056-0.017,0.084-0.025c0.032-0.01,0.065-0.017,0.096-0.03   c0.033-0.014,0.063-0.033,0.094-0.05c0.024-0.013,0.049-0.024,0.072-0.039c0.053-0.036,0.103-0.076,0.148-0.121l9.302-9.302   c0.045-0.045,0.085-0.094,0.12-0.146c0.009-0.013,0.014-0.027,0.022-0.041C39.284,57.299,39.308,57.258,39.326,57.214z    M29.133,59.024l-2.181-2.18l2.181-2.181l2.181,2.181L29.133,59.024z M28.168,52.899l-2.98,2.98h-3.029l6.009-6.009V52.899z    M25.188,57.808l2.98,2.98v3.029l-6.009-6.009H25.188z M30.098,60.788l2.98-2.98h3.029l-6.009,6.009V60.788z M33.078,55.879   l-2.98-2.98V49.87l6.009,6.009H33.078z"></path><rect x="73.718" y="22.611" transform="matrix(0.7071 -0.7071 0.7071 0.7071 4.9542 60.3158)" fill="" width="3.134" height="3.134"></rect><rect x="43.442" y="42.342" transform="matrix(0.7071 -0.7071 0.7071 0.7071 -18.3135 45.7679)" fill="" width="5.296" height="5.296"></rect><rect x="67.905" y="44.86" transform="matrix(0.7071 -0.7071 0.7071 0.7071 -12.4807 62.7218)" fill="" width="3.134" height="3.134"></rect></g></g></svg>