<svg xmlns="http://www.w3.org/2000/svg" viewBox="0 0 74.9 75.87"><defs><style>.cls-1{fill:#fefefe;}.cls-2{fill:#fff}</style></defs><title>Asset 1</title><g id="Layer_2" data-name="Layer 2"><g id="Layer_1-2" data-name="Layer 1"><g id="SvgjsG6903"><path class="cls-1" d="M73.21,53l0-.07a1.06,1.06,0,0,0,0-.16,1.19,1.19,0,0,0,0-.24,1.3,1.3,0,0,0,0-.24,1.24,1.24,0,0,0,0-.16l0-.07a1.06,1.06,0,0,0-.09-.16l0-.05a1.13,1.13,0,0,0-.15-.19L50.88,29.64a1.27,1.27,0,0,0-1.74,0L27.08,51.7a1.3,1.3,0,0,0-.15.19l0,.09-.06.12s0,.08,0,.12,0,.07,0,.11a1.23,1.23,0,0,0,0,.48s0,.07,0,.11,0,.08,0,.12l.06.12,0,.09a1.3,1.3,0,0,0,.15.19L49.14,75.51a1.3,1.3,0,0,0,.19.15l.09,0,.12.06.12,0,.11,0,.24,0,.24,0,.11,0,.12,0,.12-.06.09,0a1.3,1.3,0,0,0,.19-.15L72.94,53.45a1.25,1.25,0,0,0,.15-.19l0-.05A1.14,1.14,0,0,0,73.21,53ZM50,59.24l-6.66-6.66,6.34-6.34a1.12,1.12,0,0,0,.65,0l6.34,6.34ZM48.78,43.65l-7.69,7.69H30.93L48.78,33.49ZM41.1,53.8l7.69,7.69V71.66L30.93,53.8Zm10.15,7.69,7.69-7.69H69.1L51.24,71.66Zm7.69-10.15-7.69-7.69V33.49L69.1,51.34Z"/><path class="cls-2" d="M43.42,13.76l0,.07a1.06,1.06,0,0,0,0,.16,1.19,1.19,0,0,0,0,.24,1.3,1.3,0,0,0,0,.24,1.24,1.24,0,0,0,0,.16l0,.07a1.06,1.06,0,0,0,.09.16l0,.05a1.13,1.13,0,0,0,.15.19L55.57,27a1.25,1.25,0,0,0,.19.15l.05,0,.16.09.07,0,.16,0,.24,0,.24,0,.16,0,.07,0,.16-.09.05,0a1.13,1.13,0,0,0,.19-.15L69.2,15.11a1.3,1.3,0,0,0,.15-.19l.05-.09.06-.12a1.15,1.15,0,0,0,0-.12,1,1,0,0,0,0-.11,1.23,1.23,0,0,0,0-.48s0-.07,0-.11a1.27,1.27,0,0,0,0-.12l-.06-.12-.05-.09a1.3,1.3,0,0,0-.15-.19L57.31,1.48a1.23,1.23,0,0,0-1.74,0L43.69,13.37a1.25,1.25,0,0,0-.15.19l0,.05A1,1,0,0,0,43.42,13.76Zm13-2.31,2.79,2.79L56.44,17l-2.79-2.79Zm1.23,7.83,3.81-3.81h3.87l-7.68,7.68ZM61.48,13,57.67,9.2V5.33L65.35,13ZM55.21,9.2,51.4,13H47.53l7.68-7.68ZM51.4,15.47l3.81,3.81v3.87l-7.68-7.68Z"/><path class="cls-2" d="M26.14,45l0-.07a1.06,1.06,0,0,0,0-.16,1.19,1.19,0,0,0,0-.24,1.3,1.3,0,0,0,0-.24,1.24,1.24,0,0,0,0-.16l0-.07a1.06,1.06,0,0,0-.09-.16l0-.05a1.13,1.13,0,0,0-.15-.19L14,31.8a1.27,1.27,0,0,0-1.74,0L.36,43.69a1.25,1.25,0,0,0-.15.19l0,.05a1.36,1.36,0,0,0-.09.16l0,.07a1.06,1.06,0,0,0,0,.16,1.19,1.19,0,0,0,0,.24,1.3,1.3,0,0,0,0,.24,1.24,1.24,0,0,0,0,.16l0,.07a1.06,1.06,0,0,0,.09.16l0,.05a1.13,1.13,0,0,0,.15.19L12.24,57.32a1.3,1.3,0,0,0,.19.15l.09,0,.12.06.12,0,.11,0,.24,0,.24,0,.11,0,.12,0,.12-.06.09,0a1.3,1.3,0,0,0,.19-.15L25.87,45.43a1.25,1.25,0,0,0,.15-.19l0-.05A1.35,1.35,0,0,0,26.14,45Zm-13,2.31-2.79-2.78,2.79-2.79,2.79,2.79Zm-1.23-7.82L8.08,43.33H4.21l7.68-7.68ZM8.08,45.79l3.81,3.81v3.87L4.21,45.79Zm6.27,3.81,3.81-3.81H22l-7.68,7.68Zm3.81-6.27-3.81-3.81V35.65L22,43.33Z"/><rect class="cls-1" x="70.07" y="0.83" width="4" height="4" transform="translate(19.11 51.79) rotate(-45)"/><rect class="cls-1" x="31.39" y="26.04" width="6.77" height="6.77" transform="translate(-10.62 33.21) rotate(-45)"/><rect class="cls-1" x="62.65" y="29.25" width="4" height="4" transform="translate(-3.16 54.87) rotate(-45)"/></g></g></g></svg>