<svg>
<g id="SvgjsG6903" rel="mainfill" name="symbol" feature="symbol" xmlns:name="symbol_mainfill" fill="#222222" transform="translate(-9.100858623789925, -13.055899985340655) scale(1.277475733135148)"><g><path fill="" d="M76.175,63.486c0.008-0.018,0.011-0.038,0.018-0.057c0.014-0.04,0.029-0.08,0.037-0.123   c0.013-0.062,0.019-0.126,0.019-0.191c0-0.065-0.007-0.128-0.019-0.191c-0.009-0.043-0.023-0.083-0.037-0.123   c-0.007-0.019-0.01-0.039-0.018-0.057c-0.018-0.044-0.042-0.085-0.067-0.125c-0.008-0.013-0.013-0.028-0.022-0.041   c-0.035-0.053-0.075-0.102-0.12-0.146L58.697,45.164c-0.362-0.362-1.003-0.362-1.364,0L40.064,62.433   c-0.045,0.045-0.085,0.095-0.121,0.148c-0.015,0.023-0.026,0.048-0.039,0.072c-0.017,0.031-0.036,0.061-0.05,0.094   c-0.013,0.031-0.02,0.064-0.03,0.096c-0.008,0.028-0.019,0.055-0.025,0.084c-0.025,0.125-0.025,0.253,0,0.378   c0.006,0.029,0.017,0.056,0.025,0.084c0.01,0.032,0.017,0.065,0.03,0.096c0.014,0.033,0.033,0.063,0.05,0.094   c0.013,0.024,0.024,0.049,0.039,0.072c0.036,0.053,0.076,0.103,0.121,0.148l17.268,17.268c0.045,0.045,0.095,0.085,0.148,0.121   c0.023,0.015,0.048,0.026,0.072,0.039c0.031,0.017,0.061,0.036,0.094,0.05c0.031,0.013,0.064,0.02,0.096,0.03   c0.028,0.008,0.055,0.019,0.084,0.025c0.062,0.012,0.126,0.019,0.189,0.019c0.063,0,0.127-0.007,0.189-0.019   c0.029-0.006,0.056-0.017,0.084-0.025c0.032-0.01,0.065-0.017,0.096-0.03c0.033-0.014,0.063-0.033,0.094-0.05   c0.024-0.013,0.049-0.024,0.072-0.039c0.053-0.036,0.103-0.076,0.148-0.121l17.268-17.268c0.045-0.045,0.085-0.094,0.12-0.146   c0.009-0.013,0.014-0.027,0.022-0.041C76.133,63.571,76.157,63.53,76.175,63.486z M58.015,68.332l-5.217-5.217l4.962-4.962   c0.082,0.022,0.166,0.038,0.255,0.038s0.173-0.016,0.255-0.038l4.962,4.962L58.015,68.332z M57.05,56.134l-6.016,6.016h-7.959   L57.05,48.175V56.134z M51.035,64.08l6.016,6.016v7.959L43.075,64.08H51.035z M58.98,70.096l6.016-6.016h7.959L58.98,78.055V70.096   z M64.996,62.151l-6.016-6.016v-7.959l13.975,13.975H64.996z"></path><path fill="" d="M52.854,32.737c-0.008,0.018-0.011,0.038-0.018,0.057c-0.014,0.04-0.029,0.08-0.037,0.123   c-0.013,0.062-0.019,0.126-0.019,0.191c0,0.065,0.007,0.128,0.019,0.191c0.009,0.043,0.023,0.083,0.037,0.123   c0.007,0.019,0.01,0.039,0.018,0.057c0.018,0.044,0.042,0.085,0.067,0.125c0.008,0.013,0.013,0.028,0.022,0.041   c0.035,0.053,0.075,0.102,0.12,0.146l9.302,9.302c0.045,0.045,0.094,0.085,0.146,0.12c0.013,0.009,0.027,0.014,0.041,0.022   c0.04,0.024,0.081,0.048,0.125,0.067c0.018,0.008,0.038,0.011,0.057,0.018c0.04,0.014,0.08,0.029,0.123,0.037   c0.062,0.013,0.126,0.019,0.191,0.019c0.065,0,0.128-0.007,0.191-0.019c0.043-0.009,0.083-0.023,0.123-0.037   c0.019-0.007,0.039-0.01,0.057-0.018c0.044-0.018,0.085-0.042,0.125-0.067c0.013-0.008,0.028-0.013,0.041-0.022   c0.053-0.035,0.102-0.075,0.146-0.12l9.302-9.302c0.045-0.045,0.085-0.095,0.121-0.148c0.016-0.024,0.027-0.049,0.04-0.074   c0.017-0.031,0.035-0.06,0.049-0.092c0.013-0.032,0.021-0.065,0.03-0.097c0.008-0.028,0.019-0.054,0.024-0.083   c0.025-0.125,0.025-0.253,0-0.378c-0.006-0.029-0.016-0.055-0.024-0.083c-0.01-0.033-0.017-0.066-0.03-0.097   c-0.013-0.032-0.032-0.062-0.049-0.092c-0.013-0.025-0.024-0.05-0.04-0.074c-0.036-0.053-0.076-0.103-0.121-0.148l-9.302-9.302   c-0.181-0.181-0.426-0.283-0.682-0.283c-0.256,0-0.501,0.102-0.682,0.283l-9.303,9.302c-0.045,0.045-0.085,0.094-0.12,0.146   c-0.009,0.013-0.014,0.027-0.022,0.041C52.896,32.652,52.872,32.693,52.854,32.737z M63.047,30.927l2.181,2.181l-2.181,2.181   l-2.181-2.181L63.047,30.927z M64.012,37.053l2.98-2.98h3.029l-6.009,6.009V37.053z M66.992,32.143l-2.98-2.98v-3.029l6.009,6.009   H66.992z M62.083,29.163l-2.98,2.98h-3.029l6.009-6.009V29.163z M59.103,34.073l2.98,2.98v3.029l-6.009-6.009H59.103z"></path><path fill="" d="M39.326,57.214c0.008-0.018,0.011-0.038,0.018-0.057c0.014-0.04,0.029-0.08,0.037-0.123   c0.013-0.062,0.019-0.126,0.019-0.191c0-0.065-0.007-0.128-0.019-0.191c-0.009-0.043-0.023-0.083-0.037-0.123   c-0.007-0.019-0.01-0.039-0.018-0.057c-0.018-0.044-0.042-0.085-0.067-0.125c-0.008-0.013-0.013-0.028-0.022-0.041   c-0.035-0.053-0.075-0.102-0.12-0.146l-9.302-9.303c-0.362-0.362-1.003-0.362-1.364,0l-9.302,9.303   c-0.045,0.045-0.085,0.094-0.12,0.146c-0.009,0.013-0.014,0.027-0.022,0.041c-0.024,0.04-0.048,0.081-0.067,0.125   c-0.008,0.018-0.011,0.038-0.018,0.057c-0.014,0.04-0.029,0.08-0.037,0.123c-0.013,0.062-0.019,0.126-0.019,0.191   c0,0.065,0.007,0.128,0.019,0.191c0.009,0.043,0.023,0.083,0.037,0.123c0.007,0.019,0.01,0.039,0.018,0.057   c0.018,0.044,0.042,0.085,0.067,0.125c0.008,0.013,0.013,0.028,0.022,0.041c0.035,0.053,0.075,0.102,0.12,0.146l9.302,9.302   c0.045,0.045,0.095,0.085,0.148,0.121c0.023,0.015,0.048,0.026,0.072,0.039c0.031,0.017,0.061,0.036,0.094,0.05   c0.031,0.013,0.064,0.02,0.096,0.03c0.028,0.008,0.055,0.019,0.084,0.025c0.062,0.012,0.126,0.019,0.189,0.019   c0.063,0,0.127-0.007,0.189-0.019c0.029-0.006,0.056-0.017,0.084-0.025c0.032-0.01,0.065-0.017,0.096-0.03   c0.033-0.014,0.063-0.033,0.094-0.05c0.024-0.013,0.049-0.024,0.072-0.039c0.053-0.036,0.103-0.076,0.148-0.121l9.302-9.302   c0.045-0.045,0.085-0.094,0.12-0.146c0.009-0.013,0.014-0.027,0.022-0.041C39.284,57.299,39.308,57.258,39.326,57.214z    M29.133,59.024l-2.181-2.18l2.181-2.181l2.181,2.181L29.133,59.024z M28.168,52.899l-2.98,2.98h-3.029l6.009-6.009V52.899z    M25.188,57.808l2.98,2.98v3.029l-6.009-6.009H25.188z M30.098,60.788l2.98-2.98h3.029l-6.009,6.009V60.788z M33.078,55.879   l-2.98-2.98V49.87l6.009,6.009H33.078z"></path><rect x="73.718" y="22.611" transform="matrix(0.7071 -0.7071 0.7071 0.7071 4.9542 60.3158)" fill="" width="3.134" height="3.134"></rect><rect x="43.442" y="42.342" transform="matrix(0.7071 -0.7071 0.7071 0.7071 -18.3135 45.7679)" fill="" width="5.296" height="5.296"></rect><rect x="67.905" y="44.86" transform="matrix(0.7071 -0.7071 0.7071 0.7071 -12.4807 62.7218)" fill="" width="3.134" height="3.134"></rect></g></g>
</svg>